<svg width="22" height="14" viewBox="0 0 22 14" fill="none" xmlns="http://www.w3.org/2000/svg">
<path d="M20.9713 13.0474C20.9699 13.3235 20.745 13.5463 20.4689 13.545L1.46909 13.4545C1.19295 13.4531 0.970165 13.2282 0.971481 12.9521V12.9521C0.972797 12.6759 1.19772 12.4531 1.47386 12.4545L20.4736 12.545C20.7498 12.5463 20.9726 12.7712 20.9713 13.0474V13.0474Z" fill="white"/>
<path d="M20.9998 7.04744C20.9985 7.32358 20.7736 7.54636 20.4975 7.54505L6.49762 7.47835C6.22148 7.47703 5.9987 7.25211 6.00001 6.97597V6.97597C6.00133 6.69983 6.22625 6.47704 6.50239 6.47836L20.5022 6.54506C20.7784 6.54638 21.0012 6.7713 20.9998 7.04744V7.04744Z" fill="white"/>
<path d="M1.02866 0.952214C1.02734 1.22835 1.25013 1.45327 1.52627 1.45459L20.5261 1.54512C20.8022 1.54643 21.0271 1.32364 21.0284 1.0475V1.0475C21.0297 0.771366 20.807 0.546444 20.5308 0.545128L1.53103 0.454601C1.25489 0.453286 1.02997 0.676074 1.02866 0.952214V0.952214Z" fill="white"/>
</svg>
